<svg xmlns="http://www.w3.org/2000/svg" width="25" height="24"><path fill="#FFF" fill-rule="evenodd" d="M12.304 0C5.506 0 0 5.506 0 12.304c0 5.444 3.522 10.042 8.413 11.672.615.108.845-.261.845-.584 0-.292-.015-1.261-.015-2.291-3.091.569-3.891-.754-4.137-1.446-.138-.354-.738-1.446-1.261-1.738-.43-.23-1.046-.8-.016-.815.97-.015 1.661.892 1.892 1.261 1.107 1.86 2.876 1.338 3.584 1.015.107-.8.43-1.338.784-1.646-2.738-.307-5.598-1.368-5.598-6.074 0-1.338.477-2.446 1.26-3.307-.122-.308-.553-1.569.124-3.26 0 0 1.03-.323 3.383 1.26.985-.276 2.03-.415 3.076-.415 1.046 0 2.092.139 3.076.416 2.353-1.6 3.384-1.261 3.384-1.261.676 1.691.246 2.952.123 3.26.784.861 1.26 1.953 1.26 3.307 0 4.721-2.875 5.767-5.613 6.074.446.385.83 1.123.83 2.277 0 1.645-.015 2.968-.015 3.383 0 .323.231.708.846.584a12.324 12.324 0 0 0 8.382-11.672C24.607 5.506 19.101 0 12.304 0Z"/></svg>