<svg xmlns="http://www.w3.org/2000/svg" width="25" height="24"><path fill="#FFF" fill-rule="evenodd" d="M5.551 3.304c-1.14 0-2.067.926-2.067 2.064 0 1.14.928 2.066 2.067 2.066a2.066 2.066 0 0 0 0-4.13ZM3.767 8.998v11.453h3.562L7.33 8.998H3.767Zm5.798 0V20.45l3.554.002.002-5.668c0-1.454.253-2.941 2.132-2.941 1.851 0 1.851 1.755 1.851 3.036v5.571l3.559-.001v-6.28c0-2.834-.517-5.457-4.27-5.457-1.763 0-2.916.997-3.368 1.85h-.05V8.997h-3.41ZM22.435 24H1.982c-.976 0-1.77-.777-1.77-1.732V1.731C.212.776 1.006 0 1.982 0h20.453c.98 0 1.777.776 1.777 1.73v20.538c0 .955-.797 1.732-1.777 1.732Z"/></svg>